<svg fill="none" height="32" viewBox="0 0 32 32" width="32" xmlns="http://www.w3.org/2000/svg" xmlns:xlink="http://www.w3.org/1999/xlink"><linearGradient id="a" x1="0%" x2="100%" y1="0%" y2="100%"><stop offset="0" stop-color="#14b8a6"/><stop offset=".5" stop-color="#0d9488"/><stop offset="1" stop-color="#047857"/></linearGradient><linearGradient id="b" x1="0%" x2="100%" y1="0%" y2="100%"><stop offset="0" stop-color="#fff" stop-opacity=".3"/><stop offset="1" stop-color="#fff" stop-opacity=".1"/></linearGradient><linearGradient id="c" x1="0%" x2="100%" y1="0%" y2="100%"><stop offset="0" stop-color="#fff" stop-opacity=".8"/><stop offset="1" stop-color="#fff" stop-opacity=".4"/></linearGradient><rect fill="url(#a)" height="32" rx="6" width="32"/><path d="m16 24s-8-4.5-8-10.5a4.5 4.5 0 0 1 8-2.8 4.5 4.5 0 0 1 8 2.8c0 6-8 10.5-8 10.5z" fill="url(#b)" opacity=".15"/><path d="m20.5 11.5c-1.5-1.5-3.5-2-5.5-2s-4 .5-5.5 2c-3 3-3 8 0 11 1.5 1.5 3.5 2 5.5 2s4-.5 5.5-2" fill="none" stroke="#fff" stroke-linecap="round" stroke-width="2.5"/><path d="m19 13c-1-1-2.5-1.5-4-1.5s-3 .5-4 1.5c-2 2-2 5.5 0 7.5 1 1 2.5 1.5 4 1.5" fill="none" opacity=".6" stroke="url(#c)" stroke-linecap="round"/><g fill="#fff" opacity=".2"><rect height="4" rx=".75" width="1.5" x="22" y="6"/><rect height="1.5" rx=".75" width="4" x="20.75" y="7.25"/></g></svg>